<svg xmlns="http://www.w3.org/2000/svg" xmlns:xlink="http://www.w3.org/1999/xlink" width="250" zoomAndPan="magnify" viewBox="0 0 187.5 187.499995" height="250" preserveAspectRatio="xMidYMid meet" version="1.0"><defs><g/><clipPath id="id1"><path d="M 39 74 L 131 74 L 131 143 L 39 143 Z M 39 74 " clip-rule="nonzero"/></clipPath><clipPath id="id2"><path d="M 40.40625 61.199219 L 131.871094 63.71875 L 129.660156 143.9375 L 38.195312 141.417969 Z M 40.40625 61.199219 " clip-rule="nonzero"/></clipPath><clipPath id="id3"><path d="M 40.40625 61.199219 L 131.871094 63.71875 L 129.660156 143.9375 L 38.195312 141.417969 Z M 40.40625 61.199219 " clip-rule="nonzero"/></clipPath><clipPath id="id4"><path d="M 40.40625 61.199219 L 131.871094 63.71875 L 129.660156 143.9375 L 38.195312 141.417969 Z M 40.40625 61.199219 " clip-rule="nonzero"/></clipPath><clipPath id="id5"><path d="M 44 61 L 54 61 L 54 75 L 44 75 Z M 44 61 " clip-rule="nonzero"/></clipPath><clipPath id="id6"><path d="M 40.40625 61.199219 L 131.871094 63.71875 L 129.660156 143.9375 L 38.195312 141.417969 Z M 40.40625 61.199219 " clip-rule="nonzero"/></clipPath><clipPath id="id7"><path d="M 40.40625 61.199219 L 131.871094 63.71875 L 129.660156 143.9375 L 38.195312 141.417969 Z M 40.40625 61.199219 " clip-rule="nonzero"/></clipPath><clipPath id="id8"><path d="M 40.40625 61.199219 L 131.871094 63.71875 L 129.660156 143.9375 L 38.195312 141.417969 Z M 40.40625 61.199219 " clip-rule="nonzero"/></clipPath><clipPath id="id9"><path d="M 40 74 L 130 74 L 130 142 L 40 142 Z M 40 74 " clip-rule="nonzero"/></clipPath><clipPath id="id10"><path d="M 40.40625 61.199219 L 131.871094 63.71875 L 129.660156 143.9375 L 38.195312 141.417969 Z M 40.40625 61.199219 " clip-rule="nonzero"/></clipPath><clipPath id="id11"><path d="M 40.40625 61.199219 L 131.871094 63.71875 L 129.660156 143.9375 L 38.195312 141.417969 Z M 40.40625 61.199219 " clip-rule="nonzero"/></clipPath><clipPath id="id12"><path d="M 40.40625 61.199219 L 131.871094 63.71875 L 129.660156 143.9375 L 38.195312 141.417969 Z M 40.40625 61.199219 " clip-rule="nonzero"/></clipPath><clipPath id="id13"><path d="M 45 62 L 54 62 L 54 76 L 45 76 Z M 45 62 " clip-rule="nonzero"/></clipPath><clipPath id="id14"><path d="M 40.40625 61.199219 L 131.871094 63.71875 L 129.660156 143.9375 L 38.195312 141.417969 Z M 40.40625 61.199219 " clip-rule="nonzero"/></clipPath><clipPath id="id15"><path d="M 40.40625 61.199219 L 131.871094 63.71875 L 129.660156 143.9375 L 38.195312 141.417969 Z M 40.40625 61.199219 " clip-rule="nonzero"/></clipPath><clipPath id="id16"><path d="M 40.40625 61.199219 L 131.871094 63.71875 L 129.660156 143.9375 L 38.195312 141.417969 Z M 40.40625 61.199219 " clip-rule="nonzero"/></clipPath></defs><g clip-path="url(#id1)"><g clip-path="url(#id2)"><g clip-path="url(#id3)"><g clip-path="url(#id4)"><path fill="rgb(0%, 0%, 0%)" d="M 86.324219 142.691406 C 59.785156 141.960938 38.789062 119.890625 39.515625 93.488281 C 39.6875 86.820312 41.199219 80.46875 44.050781 74.441406 L 44.382812 74.597656 C 41.546875 80.578125 40.046875 86.878906 39.878906 93.5 C 39.15625 119.699219 59.996094 141.601562 86.335938 142.328125 C 104.523438 142.828125 121.695312 132.765625 130.082031 116.695312 L 130.40625 116.863281 C 129.359375 118.859375 128.179688 120.769531 126.871094 122.597656 C 125.558594 124.425781 124.125 126.15625 122.574219 127.785156 C 121.023438 129.410156 119.363281 130.921875 117.601562 132.320312 C 115.839844 133.714844 113.988281 134.980469 112.050781 136.117188 C 110.109375 137.25 108.101562 138.246094 106.027344 139.101562 C 103.949219 139.957031 101.824219 140.660156 99.648438 141.21875 C 97.472656 141.773438 95.269531 142.175781 93.039062 142.421875 C 90.804688 142.667969 88.570312 142.757812 86.324219 142.691406 Z M 86.324219 142.691406 " fill-opacity="1" fill-rule="nonzero"/></g></g></g></g><g clip-path="url(#id5)"><g clip-path="url(#id6)"><g clip-path="url(#id7)"><g clip-path="url(#id8)"><path fill="rgb(0%, 0%, 0%)" d="M 44.382812 74.597656 L 44.050781 74.441406 C 46.308594 69.664062 49.277344 65.382812 52.953125 61.59375 L 53.214844 61.847656 C 49.566406 65.609375 46.625 69.859375 44.382812 74.597656 Z M 44.382812 74.597656 " fill-opacity="1" fill-rule="nonzero"/></g></g></g></g><g clip-path="url(#id9)"><g clip-path="url(#id10)"><g clip-path="url(#id11)"><g clip-path="url(#id12)"><path fill="rgb(0%, 0%, 0%)" d="M 86.359375 141.507812 C 83.28125 141.425781 80.238281 141.050781 77.234375 140.371094 C 74.234375 139.691406 71.324219 138.726562 68.507812 137.476562 C 65.695312 136.226562 63.027344 134.710938 60.511719 132.933594 C 57.992188 131.15625 55.671875 129.152344 53.542969 126.917969 C 49.339844 122.511719 46.125 117.472656 43.894531 111.796875 C 42.742188 108.851562 41.894531 105.816406 41.359375 102.695312 C 40.824219 99.578125 40.609375 96.433594 40.714844 93.269531 C 40.820312 90.105469 41.242188 86.984375 41.980469 83.902344 C 42.722656 80.824219 43.765625 77.855469 45.109375 74.988281 L 45.179688 75.023438 C 42.414062 80.878906 40.949219 87.042969 40.78125 93.523438 C 40.074219 119.226562 60.519531 140.714844 86.359375 141.425781 C 104.265625 141.921875 121.136719 132.007812 129.347656 116.15625 L 129.410156 116.191406 C 128.394531 118.144531 127.25 120.015625 125.96875 121.808594 C 124.691406 123.597656 123.296875 125.292969 121.78125 126.886719 C 120.269531 128.484375 118.652344 129.964844 116.929688 131.332031 C 115.207031 132.699219 113.402344 133.941406 111.507812 135.054688 C 109.613281 136.167969 107.652344 137.144531 105.621094 137.980469 C 103.589844 138.820312 101.511719 139.511719 99.382812 140.054688 C 97.257812 140.601562 95.101562 140.996094 92.921875 141.238281 C 90.738281 141.480469 88.550781 141.570312 86.359375 141.503906 Z M 86.359375 141.507812 " fill-opacity="1" fill-rule="nonzero"/></g></g></g></g><g clip-path="url(#id13)"><g clip-path="url(#id14)"><g clip-path="url(#id15)"><g clip-path="url(#id16)"><path fill="rgb(0%, 0%, 0%)" d="M 45.195312 75.023438 L 45.125 74.992188 C 47.289062 70.390625 50.128906 66.257812 53.644531 62.589844 L 53.695312 62.644531 C 50.191406 66.304688 47.355469 70.429688 45.195312 75.023438 Z M 45.195312 75.023438 " fill-opacity="1" fill-rule="nonzero"/></g></g></g></g><g fill="rgb(0%, 0%, 0%)" fill-opacity="1"><g transform="translate(66.793719, 101.353106)"><g><path d="M 30.515625 -0.15625 C 27.683594 -0.195312 26.621094 -1.652344 24.695312 -5.859375 L 23.554688 -8.375 C 22.0625 -11.71875 18.992188 -12.621094 15.296875 -12.898438 C 21.824219 -13.644531 25.875 -16.121094 25.875 -20.292969 C 25.875 -25.246094 21.472656 -27.527344 13.449219 -27.527344 L 5.542969 -27.527344 C 4.523438 -27.527344 3.972656 -27.644531 1.375 -27.644531 C 1.101562 -27.644531 1.140625 -27.371094 1.375 -27.371094 C 4.523438 -27.332031 5.191406 -26.859375 5.191406 -21.429688 L 5.191406 -6.09375 C 5.191406 -0.667969 4.523438 -0.195312 1.375 -0.15625 C 1.140625 -0.15625 1.101562 0.117188 1.375 0.117188 C 3.972656 0.117188 4.523438 0 5.542969 0 L 8.140625 0 C 9.59375 0 10.382812 0.117188 14.15625 0.117188 C 14.550781 0.117188 14.511719 -0.195312 14.15625 -0.195312 C 9.59375 -0.195312 8.613281 -0.746094 8.613281 -6.683594 L 8.613281 -12.621094 L 9.242188 -12.621094 C 15.296875 -12.621094 18.640625 -11.640625 20.566406 -6.921875 L 21.589844 -4.484375 C 22.570312 -2.125 23.476562 -0.316406 24.929688 0 L 26.699219 0 C 27.605469 0 28.195312 0.117188 30.515625 0.117188 C 30.75 0.117188 30.75 -0.15625 30.515625 -0.15625 Z M 8.964844 -26.859375 L 12.78125 -26.859375 C 18.757812 -26.859375 21.941406 -25.128906 21.941406 -20.332031 C 21.941406 -15.492188 17.261719 -13.054688 10.027344 -13.054688 L 8.613281 -13.054688 L 8.613281 -22.375 C 8.613281 -25.679688 8.847656 -26.386719 8.964844 -26.859375 Z M 8.964844 -26.859375 "/></g></g></g><g fill="rgb(0%, 0%, 0%)" fill-opacity="1"><g transform="translate(85.218826, 113.305086)"><g><path d="M 28.667969 4.953125 C 28.902344 4.953125 29.140625 4.71875 29.21875 4.445312 C 29.21875 4.285156 29.101562 3.972656 28.941406 3.894531 C 28.785156 3.8125 28.589844 3.773438 28.390625 3.695312 C 28.3125 3.65625 28.234375 3.65625 28.15625 3.617188 C 27.054688 3.222656 26.152344 2.632812 25.402344 1.769531 C 23.949219 0.078125 22.925781 -1.335938 22.101562 -2.753906 C 21.785156 -3.304688 21.472656 -3.855469 21.15625 -4.523438 C 20.839844 -5.152344 20.527344 -5.820312 20.210938 -6.449219 C 20.054688 -6.765625 19.898438 -7.078125 19.742188 -7.433594 C 19.703125 -7.472656 19.703125 -7.511719 19.660156 -7.550781 C 19.621094 -7.589844 19.582031 -7.667969 19.582031 -7.707031 C 19.425781 -7.984375 19.425781 -8.335938 19.542969 -8.613281 C 19.660156 -8.886719 19.898438 -9.082031 20.171875 -9.125 C 20.25 -9.164062 20.292969 -9.164062 20.371094 -9.164062 C 20.605469 -9.242188 20.839844 -9.320312 21.117188 -9.359375 C 23.160156 -9.632812 24.8125 -10.382812 26.230469 -11.679688 C 26.347656 -11.757812 26.503906 -11.875 26.621094 -11.953125 C 26.660156 -11.992188 26.742188 -12.074219 26.820312 -12.113281 C 27.839844 -12.9375 28.707031 -14 29.492188 -15.21875 C 30.199219 -16.320312 30.671875 -17.382812 30.910156 -18.441406 C 31.261719 -19.820312 31.105469 -21.15625 30.515625 -22.375 C 29.570312 -24.261719 28.15625 -25.480469 26.269531 -25.953125 C 24.65625 -26.386719 23.082031 -26.582031 21.273438 -26.621094 C 18.363281 -26.542969 15.414062 -25.875 12.703125 -24.695312 C 11.246094 -24.066406 10.066406 -23.398438 9.082031 -22.652344 C 7.273438 -21.273438 5.664062 -19.703125 4.324219 -18.050781 C 2.792969 -16.164062 1.613281 -13.960938 0.746094 -11.523438 C 0.316406 -10.261719 0.078125 -9.003906 0 -7.863281 C -0.0390625 -6.054688 0.117188 -4.523438 0.589844 -3.144531 C 0.785156 -2.59375 1.023438 -2.125 1.296875 -1.691406 C 2.042969 -0.550781 3.066406 0.078125 4.402344 0.195312 C 4.601562 0.234375 4.835938 0.234375 5.074219 0.234375 C 6.488281 0.234375 7.746094 -0.195312 8.847656 -1.023438 C 9.632812 -1.652344 10.304688 -2.320312 10.851562 -3.066406 C 11.757812 -4.246094 12.621094 -5.464844 13.292969 -6.371094 C 13.527344 -6.722656 13.761719 -7.078125 14 -7.394531 C 14.195312 -7.746094 14.433594 -8.101562 14.707031 -8.414062 C 14.980469 -8.847656 15.492188 -9.125 16.042969 -9.125 C 16.515625 -9.125 16.988281 -8.925781 17.300781 -8.574219 C 17.460938 -8.414062 17.539062 -8.296875 17.65625 -8.140625 L 17.695312 -8.101562 C 18.5625 -6.960938 19.230469 -5.859375 19.660156 -4.757812 C 20.015625 -3.894531 20.449219 -3.027344 21.078125 -1.964844 C 22.0625 -0.316406 23.28125 1.296875 24.734375 2.949219 C 25.480469 3.773438 26.503906 4.402344 27.800781 4.835938 C 28.039062 4.914062 28.351562 4.914062 28.667969 4.953125 Z M 21.746094 -25.363281 C 22.101562 -25.363281 22.609375 -25.324219 23.160156 -25.128906 C 23.476562 -25.050781 23.710938 -24.773438 23.832031 -24.460938 C 23.910156 -24.183594 23.871094 -23.910156 23.671875 -23.671875 C 23.515625 -23.476562 23.320312 -23.199219 23.121094 -22.964844 C 21.941406 -21.589844 20.839844 -20.132812 19.703125 -18.480469 C 18.679688 -16.910156 17.617188 -15.375 16.554688 -13.882812 C 16.28125 -13.449219 15.964844 -13.015625 15.691406 -12.582031 C 15.53125 -12.386719 15.335938 -12.113281 15.101562 -11.914062 C 14.902344 -11.757812 14.628906 -11.640625 14.351562 -11.640625 C 14.234375 -11.640625 14.117188 -11.679688 14 -11.71875 C 13.605469 -11.875 13.171875 -12.074219 12.78125 -12.386719 C 11.875 -13.09375 11.207031 -13.84375 10.734375 -14.667969 C 10.539062 -14.980469 10.382812 -15.257812 10.222656 -15.453125 C 10.144531 -15.53125 10.027344 -15.574219 9.871094 -15.574219 C 9.792969 -15.574219 9.671875 -15.574219 9.632812 -15.53125 C 9.359375 -15.375 9.203125 -15.023438 9.242188 -14.863281 C 9.515625 -14.078125 9.988281 -13.371094 10.617188 -12.664062 C 11.167969 -12.074219 11.835938 -11.402344 12.621094 -10.933594 C 13.09375 -10.695312 13.527344 -10.382812 13.644531 -9.910156 C 13.761719 -9.398438 13.449219 -8.925781 13.132812 -8.414062 C 13.054688 -8.296875 12.976562 -8.179688 12.898438 -8.0625 C 12.542969 -7.511719 12.152344 -6.921875 11.71875 -6.332031 C 11.128906 -5.542969 10.5 -4.679688 9.792969 -3.773438 C 9.320312 -3.144531 8.730469 -2.554688 8.023438 -2.042969 C 7.15625 -1.375 6.132812 -1.023438 4.992188 -1.023438 C 4.953125 -1.023438 4.875 -1.023438 4.796875 -1.023438 C 3.695312 -1.0625 2.832031 -1.574219 2.28125 -2.554688 C 1.847656 -3.265625 1.574219 -4.089844 1.453125 -4.953125 C 1.414062 -5.386719 1.375 -5.820312 1.335938 -6.214844 C 1.335938 -6.410156 1.335938 -6.566406 1.296875 -6.765625 C 1.21875 -8.296875 1.453125 -9.792969 2.042969 -11.402344 C 3.027344 -14 4.285156 -16.164062 5.9375 -18.011719 C 6.882812 -19.03125 7.746094 -19.898438 8.652344 -20.683594 C 10.933594 -22.652344 13.605469 -23.949219 16.832031 -24.734375 C 18.363281 -25.089844 19.78125 -25.285156 21.195312 -25.324219 C 21.351562 -25.324219 21.550781 -25.363281 21.746094 -25.363281 Z M 26.9375 -24.105469 C 27.488281 -24.105469 27.878906 -23.75 28.195312 -23.4375 C 28.667969 -22.964844 29.179688 -22.375 29.453125 -21.667969 C 29.925781 -20.449219 29.925781 -19.269531 29.492188 -18.089844 C 28.746094 -16.121094 27.566406 -14.433594 25.992188 -13.09375 C 25.875 -12.976562 25.71875 -12.859375 25.558594 -12.742188 C 25.441406 -12.664062 25.285156 -12.542969 25.167969 -12.425781 C 24.105469 -11.484375 22.769531 -10.894531 21 -10.617188 C 20.605469 -10.539062 20.171875 -10.5 19.742188 -10.460938 C 19.503906 -10.460938 19.308594 -10.421875 19.070312 -10.421875 C 19.03125 -10.421875 19.03125 -10.421875 18.992188 -10.421875 C 18.992188 -10.421875 18.953125 -10.421875 18.914062 -10.421875 C 18.835938 -10.421875 18.71875 -10.421875 18.601562 -10.460938 C 18.324219 -10.5 17.972656 -10.539062 17.617188 -10.578125 C 17.300781 -10.65625 17.027344 -10.851562 16.910156 -11.128906 C 16.753906 -11.441406 16.792969 -11.835938 16.988281 -12.152344 C 17.027344 -12.230469 17.066406 -12.269531 17.066406 -12.347656 L 17.105469 -12.347656 C 17.734375 -13.253906 18.363281 -14.195312 18.953125 -15.101562 C 20.210938 -16.949219 21.511719 -18.875 22.886719 -20.722656 C 23.320312 -21.273438 23.789062 -21.863281 24.339844 -22.414062 C 24.734375 -22.808594 25.246094 -23.242188 25.914062 -23.710938 C 26.152344 -23.871094 26.503906 -24.105469 26.9375 -24.105469 Z M 26.9375 -24.105469 "/></g></g></g><g fill="rgb(0%, 0%, 0%)" fill-opacity="1"><g transform="translate(64.192217, 56.193355)"><g><path d="M 3.5 -1.972656 C 3.625 -2.042969 3.78125 -2.148438 3.855469 -2.234375 L 3.8125 -2.308594 C 3.785156 -2.285156 3.753906 -2.265625 3.714844 -2.246094 C 3.503906 -2.121094 3.261719 -2.253906 2.53125 -2.828125 C 1.792969 -3.417969 1.453125 -3.730469 0.632812 -3.386719 C 1.386719 -3.945312 1.554688 -4.632812 1.214844 -5.214844 C 0.894531 -5.769531 0.28125 -5.96875 -0.976562 -5.238281 L -2.203125 -4.527344 L -2.15625 -4.449219 C -1.929688 -4.503906 -1.792969 -4.394531 -1.496094 -3.882812 L 0.109375 -1.117188 C 0.402344 -0.605469 0.429688 -0.429688 0.269531 -0.265625 L 0.316406 -0.183594 L 1.320312 -0.765625 L 1.277344 -0.847656 C 1.050781 -0.792969 0.910156 -0.902344 0.617188 -1.410156 L -0.226562 -2.863281 L 0.171875 -3.09375 C 0.917969 -3.523438 1.21875 -3.121094 2.074219 -2.472656 C 2.722656 -1.984375 3.023438 -1.695312 3.5 -1.972656 Z M -0.277344 -2.957031 L -1.382812 -4.863281 C -1.289062 -4.925781 -1.191406 -4.988281 -1.097656 -5.042969 C -0.179688 -5.574219 0.449219 -5.320312 0.769531 -4.765625 C 1.074219 -4.238281 0.957031 -3.671875 0.242188 -3.257812 Z M -0.277344 -2.957031 "/></g></g></g><g fill="rgb(0%, 0%, 0%)" fill-opacity="1"><g transform="translate(72.326826, 52.013779)"><g><path d="M 2.480469 -0.746094 C 3.429688 -1.058594 4.007812 -1.824219 3.554688 -3.195312 L 2.863281 -5.277344 C 2.679688 -5.835938 2.695312 -6.015625 2.878906 -6.144531 L 2.851562 -6.234375 L 2.003906 -5.953125 L 2.035156 -5.863281 C 2.363281 -5.882812 2.589844 -5.746094 2.84375 -4.96875 L 3.449219 -3.136719 C 3.894531 -1.800781 3.238281 -1.15625 2.652344 -0.960938 C 1.765625 -0.667969 0.914062 -0.890625 0.496094 -2.160156 L -0.203125 -4.261719 C -0.386719 -4.820312 -0.371094 -5 -0.1875 -5.128906 L -0.214844 -5.21875 L -1.320312 -4.855469 L -1.289062 -4.765625 C -1.058594 -4.773438 -0.945312 -4.636719 -0.761719 -4.078125 L -0.0507812 -1.933594 C 0.402344 -0.5625 1.507812 -0.421875 2.480469 -0.746094 Z M 2.480469 -0.746094 "/></g></g></g><g fill="rgb(0%, 0%, 0%)" fill-opacity="1"><g transform="translate(81.609628, 49.48445)"><g><path d="M 0.363281 -0.0429688 L 1.816406 -0.207031 C 3.550781 -0.40625 4.050781 -1.316406 3.945312 -2.113281 C 3.859375 -2.808594 3.28125 -3.328125 2.113281 -3.253906 C 2.90625 -3.496094 3.171875 -3.972656 3.117188 -4.457031 C 3.050781 -5.035156 2.558594 -5.347656 1.460938 -5.222656 L -0.207031 -5.03125 L -0.195312 -4.9375 C 0.0234375 -4.898438 0.113281 -4.742188 0.183594 -4.160156 L 0.546875 -0.980469 C 0.613281 -0.394531 0.558594 -0.222656 0.351562 -0.132812 Z M 1.148438 -0.867188 L 0.902344 -3.019531 L 1.632812 -3.105469 C 2.699219 -3.226562 3.226562 -2.679688 3.320312 -1.859375 C 3.410156 -1.070312 3.03125 -0.453125 1.871094 -0.320312 L 1.589844 -0.289062 C 1.285156 -0.253906 1.207031 -0.355469 1.148438 -0.867188 Z M 0.890625 -3.128906 L 0.675781 -5.023438 L 1.214844 -5.085938 C 1.949219 -5.167969 2.414062 -4.847656 2.480469 -4.253906 C 2.539062 -3.734375 2.261719 -3.285156 1.554688 -3.203125 Z M 0.890625 -3.128906 "/></g></g></g><g fill="rgb(0%, 0%, 0%)" fill-opacity="1"><g transform="translate(90.784868, 48.963135)"><g><path d="M 0.367188 0.0234375 L 1.527344 0.09375 L 1.53125 0 C 1.3125 -0.078125 1.257812 -0.246094 1.292969 -0.835938 L 1.488281 -4.027344 C 1.523438 -4.617188 1.597656 -4.777344 1.824219 -4.828125 L 1.828125 -4.921875 L 0.667969 -4.992188 L 0.664062 -4.898438 C 0.875 -4.820312 0.933594 -4.652344 0.898438 -4.0625 L 0.707031 -0.871094 C 0.671875 -0.28125 0.589844 -0.121094 0.371094 -0.0703125 Z M 0.367188 0.0234375 "/></g></g></g><g fill="rgb(0%, 0%, 0%)" fill-opacity="1"><g transform="translate(97.441206, 49.653318)"><g><path d="M 0.355469 0.0898438 L 2.179688 0.539062 C 3.710938 0.921875 4.964844 0.109375 5.320312 -1.363281 C 5.59375 -2.492188 5.144531 -3.898438 3.230469 -4.375 L 1.5625 -4.785156 L 1.542969 -4.695312 C 1.734375 -4.582031 1.765625 -4.402344 1.625 -3.832031 L 0.851562 -0.726562 C 0.710938 -0.15625 0.601562 -0.0117188 0.378906 -0.00390625 Z M 1.355469 -0.3125 L 2.386719 -4.472656 L 2.863281 -4.355469 C 4.414062 -3.96875 4.964844 -2.636719 4.617188 -1.242188 C 4.257812 0.214844 3.410156 0.734375 2.191406 0.433594 L 1.683594 0.308594 C 1.300781 0.210938 1.277344 0.0117188 1.355469 -0.3125 Z M 1.355469 -0.3125 "/></g></g></g><g fill="rgb(0%, 0%, 0%)" fill-opacity="1"><g transform="translate(106.97229, 52.623467)"><g><path d="M 0.332031 0.152344 L 1.390625 0.632812 L 1.429688 0.546875 C 1.253906 0.394531 1.265625 0.21875 1.507812 -0.316406 L 2.828125 -3.230469 C 3.070312 -3.765625 3.199219 -3.890625 3.429688 -3.855469 L 3.464844 -3.941406 L 2.410156 -4.421875 L 2.371094 -4.335938 C 2.539062 -4.191406 2.535156 -4.011719 2.292969 -3.472656 L 0.972656 -0.558594 C 0.726562 -0.0234375 0.59375 0.0976562 0.371094 0.0664062 Z M 0.332031 0.152344 "/></g></g></g><g fill="rgb(0%, 0%, 0%)" fill-opacity="1"><g transform="translate(112.941921, 55.666438)"><g><path d="M -0.101562 -0.0703125 L 0.566406 0.390625 L 0.621094 0.3125 C 0.449219 0.132812 0.558594 -0.078125 0.976562 -0.355469 L 1.917969 -0.980469 L 3.585938 0.167969 L 3.347656 1.285156 C 3.234375 1.855469 3.199219 2.007812 2.980469 1.933594 L 2.925781 2.011719 L 3.84375 2.640625 L 3.894531 2.566406 C 3.808594 2.425781 3.746094 2.210938 3.867188 1.640625 L 4.816406 -2.851562 L 4.234375 -2.957031 L 4.203125 -2.796875 C 4.1875 -2.667969 4.140625 -2.585938 4.023438 -2.507812 L 0.875 -0.425781 C 0.382812 -0.101562 0.15625 -0.0859375 -0.046875 -0.144531 Z M 2.015625 -1.042969 L 4.140625 -2.449219 L 3.609375 0.0546875 Z M 2.015625 -1.042969 "/></g></g></g><g fill="rgb(0%, 0%, 0%)" fill-opacity="1"><g transform="translate(124.679001, 66.056094)"><g><path d="M 2.3125 3.285156 C 2.398438 3.402344 2.519531 3.542969 2.609375 3.609375 L 2.679688 3.558594 C 2.652344 3.535156 2.632812 3.507812 2.605469 3.472656 C 2.464844 3.273438 2.570312 3.019531 3.066406 2.234375 C 3.582031 1.4375 3.855469 1.070312 3.433594 0.289062 C 4.066406 0.980469 4.765625 1.078125 5.3125 0.683594 C 5.828125 0.308594 5.964844 -0.320312 5.113281 -1.5 L 4.285156 -2.644531 L 4.207031 -2.589844 C 4.285156 -2.375 4.191406 -2.222656 3.714844 -1.878906 L 1.121094 -0.00390625 C 0.644531 0.339844 0.472656 0.382812 0.289062 0.242188 L 0.214844 0.296875 L 0.894531 1.238281 L 0.972656 1.183594 C 0.894531 0.964844 0.988281 0.816406 1.464844 0.472656 L 2.824219 -0.511719 L 3.09375 -0.140625 C 3.601562 0.558594 3.226562 0.898438 2.667969 1.816406 C 2.25 2.507812 1.988281 2.835938 2.3125 3.285156 Z M 2.914062 -0.574219 L 4.699219 -1.867188 C 4.769531 -1.777344 4.84375 -1.6875 4.90625 -1.601562 C 5.53125 -0.738281 5.335938 -0.0859375 4.820312 0.285156 C 4.324219 0.644531 3.75 0.582031 3.265625 -0.0859375 Z M 2.914062 -0.574219 "/></g></g></g><g fill="rgb(0%, 0%, 0%)" fill-opacity="1"><g transform="translate(129.653535, 73.729232)"><g><path d="M 0.992188 2.394531 C 1.398438 3.304688 2.21875 3.800781 3.535156 3.214844 L 5.539062 2.316406 C 6.078125 2.078125 6.257812 2.074219 6.402344 2.246094 L 6.488281 2.207031 L 6.125 1.394531 L 6.039062 1.433594 C 6.089844 1.757812 5.976562 1.996094 5.230469 2.332031 L 3.46875 3.117188 C 2.183594 3.691406 1.472656 3.105469 1.222656 2.542969 C 0.84375 1.691406 0.980469 0.820312 2.199219 0.273438 L 4.222656 -0.628906 C 4.757812 -0.871094 4.9375 -0.871094 5.085938 -0.703125 L 5.171875 -0.738281 L 4.695312 -1.800781 L 4.609375 -1.761719 C 4.644531 -1.53125 4.519531 -1.40625 3.980469 -1.167969 L 1.917969 -0.246094 C 0.601562 0.34375 0.574219 1.457031 0.992188 2.394531 Z M 0.992188 2.394531 "/></g></g></g><g fill="rgb(0%, 0%, 0%)" fill-opacity="1"><g transform="translate(133.107353, 82.709568)"><g><path d="M 0.078125 0.359375 L 0.390625 1.789062 C 0.761719 3.492188 1.714844 3.898438 2.5 3.714844 C 3.183594 3.558594 3.640625 2.929688 3.449219 1.773438 C 3.769531 2.542969 4.273438 2.753906 4.75 2.652344 C 5.316406 2.527344 5.578125 2.007812 5.34375 0.929688 L 4.984375 -0.710938 L 4.894531 -0.691406 C 4.875 -0.46875 4.730469 -0.363281 4.15625 -0.238281 L 1.03125 0.445312 C 0.453125 0.570312 0.277344 0.535156 0.167969 0.335938 Z M 0.980469 1.058594 L 3.097656 0.59375 L 3.253906 1.308594 C 3.480469 2.363281 2.992188 2.9375 2.183594 3.113281 C 1.40625 3.285156 0.757812 2.96875 0.507812 1.828125 L 0.449219 1.554688 C 0.382812 1.253906 0.476562 1.167969 0.980469 1.058594 Z M 3.203125 0.574219 L 5.066406 0.164062 L 5.183594 0.699219 C 5.339844 1.421875 5.066406 1.914062 4.484375 2.039062 C 3.972656 2.152344 3.496094 1.917969 3.34375 1.222656 Z M 3.203125 0.574219 "/></g></g></g><g fill="rgb(0%, 0%, 0%)" fill-opacity="1"><g transform="translate(134.545282, 91.786767)"><g><path d="M 0.015625 0.367188 L 0.0625 1.527344 L 0.15625 1.523438 C 0.210938 1.296875 0.371094 1.226562 0.960938 1.203125 L 4.15625 1.074219 C 4.746094 1.050781 4.914062 1.109375 4.988281 1.328125 L 5.078125 1.324219 L 5.03125 0.164062 L 4.941406 0.167969 C 4.882812 0.382812 4.722656 0.460938 4.132812 0.484375 L 0.9375 0.617188 C 0.347656 0.640625 0.179688 0.574219 0.109375 0.363281 Z M 0.015625 0.367188 "/></g></g></g><g fill="rgb(0%, 0%, 0%)" fill-opacity="1"><g transform="translate(134.550161, 98.469628)"><g><path d="M -0.503906 2.882812 C -0.683594 4.078125 -0.101562 5.511719 1.652344 5.777344 C 3.390625 6.035156 4.410156 4.847656 4.589844 3.648438 C 4.816406 2.144531 3.890625 0.960938 2.433594 0.742188 C 0.675781 0.480469 -0.324219 1.679688 -0.503906 2.882812 Z M 2.761719 1.371094 C 3.925781 1.503906 4.632812 2.253906 4.46875 3.332031 C 4.277344 4.601562 2.753906 5.324219 1.265625 5.152344 C 0.195312 5.027344 -0.542969 4.34375 -0.371094 3.207031 C -0.183594 1.9375 1.328125 1.207031 2.761719 1.371094 Z M 2.761719 1.371094 "/></g></g></g></svg>